<?xml version='1.0' encoding='utf-8'?>
<svg xmlns="http://www.w3.org/2000/svg" viewBox="0 0 1024 1024"> <defs> <style> .cls-1 { fill: #412425; } .cls-2 { fill: #faf6c5; } .cls-3 { fill: #5a518b; } .cls-4 { fill: #dfa537; } .cls-5 { fill: #d56777; } .cls-6 { fill: #c1842b; } </style> </defs> <title>Cup Cake</title> <g id="Layer_1" data-name="Layer 1"> <path class="cls-1" d="M512,903.37c-55.39,0-107.24-2.56-146-7.21-27.75-3.33-46.4-7.28-58.68-12.43-15-6.29-23.76-15.89-26-28.56L146.06,435.5a30.77,30.77,0,0,1,17.26-37.88,62.79,62.79,0,0,1,13.66-4c4.55-38.8,27.13-75,66-105.4,38-29.78,89.56-52.2,149.7-65.24a120.75,120.75,0,0,1,238.66,0c59.76,13,111,35.19,149,64.7s60.71,64.77,66.2,102.53a63.63,63.63,0,0,1,22,12.21,30.79,30.79,0,0,1,9.44,33L742.67,855.17c-2.25,12.67-11,22.27-26,28.56-12.28,5.15-30.93,9.1-58.68,12.43C619.24,900.81,567.39,903.37,512,903.37Z"/> <path class="cls-2" d="M855.57,417.71a10.89,10.89,0,0,1,3.33,11.65L723.14,850.58c-1.27,11.34-14.12,19.31-67.54,25.72-38,4.56-89,7.07-143.6,7.07s-105.61-2.51-143.6-7.07c-53.42-6.41-66.27-14.38-67.54-25.72L165.1,429.36A10.89,10.89,0,0,1,171.18,416c6.67-2.86,15.64-3.91,25.1-3.91-.05-1.24-.16-2.49-.16-3.72,0-77.52,86.07-144.62,215.18-168.73a100.71,100.71,0,0,1,201.4,0c128.41,24,214.17,90.47,215.13,167.42C838.55,407.63,847.83,411.15,855.57,417.71Z"/> <path class="cls-3" d="M702.25,844.39,835.61,430.61c-6.32-2.64-17.87-3.9-38.83,5.1-27.54,16.69-57.2,20.37-88.15,11-11.87-3.62-25.16-3.18-38.41,1.27-15,5-31,4.47-47.67-1.61a67.71,67.71,0,0,0-37.29-2.15c-22,4.66-46.41,4.07-74.64-1.78a72.46,72.46,0,0,0-36,1.92c-18.64,5.61-39.17,5.69-61,.26-9.35-2.33-20.07-1.91-31.83,1.23s-27.95,2.39-49.5-2.33a66.94,66.94,0,0,0-38.43,3.13c-16.31,6.27-35.88-.18-50.16-4.9-2.66-.88-5.09-1.68-7.2-2.28-12.32-3.52-33.24-6.47-47-5.38L321.75,844.39c12.61,7.44,83.07,17.2,190.25,17.2S689.65,851.83,702.25,844.39Z"/> <path class="cls-4" d="M835.61,430.61,702.25,844.39c-12.6,7.44-83.07,17.2-190.25,17.2s-177.64-9.76-190.25-17.2L189.5,434c13.8-1.09,34.72,1.86,47,5.38,2.11.6,4.54,1.4,7.2,2.28,14.28,4.72,33.85,11.17,50.16,4.9a66.94,66.94,0,0,1,38.43-3.13c21.55,4.72,37.73,5.48,49.5,2.33s22.48-3.56,31.83-1.23c21.83,5.43,42.36,5.35,61-.26a72.46,72.46,0,0,1,36-1.92c28.23,5.85,52.64,6.44,74.64,1.78a67.71,67.71,0,0,1,37.29,2.15c16.68,6.08,32.72,6.62,47.67,1.61,13.25-4.45,26.54-4.89,38.41-1.27,31,9.42,60.61,5.74,88.15-11C817.74,426.71,829.29,428,835.61,430.61Zm-42.73,78.44a10.89,10.89,0,1,0-20.51-7.32L689.71,733.56a10.88,10.88,0,0,0,6.6,13.91,10.61,10.61,0,0,0,3.66.64,10.89,10.89,0,0,0,10.25-7.23ZM703,507.91a10.89,10.89,0,1,0-21.19-5L626.71,734.7a10.89,10.89,0,0,0,21.19,5Zm-90-1.24a10.89,10.89,0,0,0-21.63-2.56L563.84,735.93a10.89,10.89,0,0,0,9.53,12.1,11.48,11.48,0,0,0,1.3.08,10.89,10.89,0,0,0,10.8-9.61ZM522.89,737.22V505.39a10.89,10.89,0,1,0-21.78,0V737.22a10.89,10.89,0,0,0,21.78,0ZM450.63,748a10.88,10.88,0,0,0,9.53-12.1L432.61,504.11A10.89,10.89,0,0,0,411,506.67L438.54,738.5a10.89,10.89,0,0,0,10.8,9.61A11.17,11.17,0,0,0,450.63,748Zm-61.42-.22a10.89,10.89,0,0,0,8.08-13.11L342.18,502.87a10.89,10.89,0,1,0-21.19,5L376.1,739.74a10.86,10.86,0,0,0,13.11,8.07Zm-61.52-.34a10.88,10.88,0,0,0,6.6-13.91L251.63,501.73a10.89,10.89,0,1,0-20.51,7.32l82.66,231.83A10.9,10.9,0,0,0,324,748.11,10.6,10.6,0,0,0,327.69,747.47Z"/> <path class="cls-5" d="M806.1,408.38c0,.4,0,.76,0,1.16A124,124,0,0,0,787.41,416a11.71,11.71,0,0,0-1.36.71c-22.49,13.83-45.73,16.8-71.07,9.08-16.23-4.95-34.1-4.44-51.68,1.46-10.31,3.45-21.19,3-33.29-1.42a89.39,89.39,0,0,0-49.26-3c-19,4-40.48,3.44-65.7-1.8a95.31,95.31,0,0,0-46.67,2.39c-15.05,4.52-31.23,4.51-49.46,0-13-3.22-27.34-2.78-42.72,1.34-5.65,1.5-17,2.28-39.2-2.58a88.86,88.86,0,0,0-50.92,4.08c-9,3.48-25-1.77-35.51-5.25-3-1-5.7-1.88-8-2.55h0a181.5,181.5,0,0,0-24.39-4.83c-.11-1.76-.22-3.52-.22-5.26,0-67.3,84.87-128.55,206.33-148.94,3.44-.55,6.87-1.11,10.35-1.63a546.42,546.42,0,0,1,154.84,0c3.48.52,6.91,1.08,10.29,1.63C721.23,279.83,806.1,341.08,806.1,408.38ZM374,302.32a6.54,6.54,0,1,0-2.75-12.78C323.53,299.81,282.8,327.27,265,361.2a6.54,6.54,0,0,0,11.57,6.09C292.61,336.69,330,311.79,374,302.32Z"/> <g> <path class="cls-5" d="M511.21,162.45l1.14,0C511.62,162.45,511.21,162.45,511.21,162.45Z"/> <path class="cls-5" d="M515.48,162.58l1.75.36-.24,0a95,95,0,0,1,14.31,4.19,96.63,96.63,0,0,1,40.12,29.13,6.53,6.53,0,1,1-10.13,8.25,83,83,0,0,0-49.47-29.35,6.52,6.52,0,0,1-.61-12.68,79.07,79.07,0,0,0-77.79,71,2,2,0,0,0,2.26,2.2c2.88-.37,5.79-.69,8.68-1,2.48-.3,4.92-.66,7.42-.92,4.23-.46,8.51-.79,12.79-1.15,2.37-.2,4.72-.45,7.1-.62,4.73-.33,9.48-.54,14.23-.75,2-.09,3.91-.24,5.88-.31,13.46-.47,27-.47,40.47,0,1.8.06,3.59.2,5.39.28,4.91.22,9.83.44,14.71.78l2.55.21,4.49.41c4.28.35,8.57.69,12.82,1.14,2.66.29,5.27.66,7.91,1s5.48.64,8.2,1a2,2,0,0,0,2.26-2.2A79,79,0,0,0,515.48,162.58ZM582,228.11a6.55,6.55,0,0,1-8.56-3.48c-.83-2-1.75-3.92-2.73-5.81a6.53,6.53,0,1,1,11.6-6c1.15,2.22,2.22,4.49,3.17,6.74A6.55,6.55,0,0,1,582,228.11Z"/> </g> <path class="cls-6" d="M786.28,495.13a10.89,10.89,0,0,1,6.6,13.92L710.22,740.88A10.89,10.89,0,0,1,700,748.11a10.61,10.61,0,0,1-3.66-.64,10.88,10.88,0,0,1-6.6-13.91l82.66-231.83A10.88,10.88,0,0,1,786.28,495.13Zm-104.46,7.74L626.71,734.7a10.89,10.89,0,0,0,21.19,5L703,507.91a10.89,10.89,0,1,0-21.19-5Zm-90.43,1.24L563.84,735.93a10.89,10.89,0,0,0,9.53,12.1,11.48,11.48,0,0,0,1.3.08,10.89,10.89,0,0,0,10.8-9.61L613,506.67a10.89,10.89,0,0,0-21.63-2.56ZM512,494.5a10.9,10.9,0,0,0-10.89,10.89V737.22a10.89,10.89,0,0,0,21.78,0V505.39A10.89,10.89,0,0,0,512,494.5Zm-79.39,9.61A10.89,10.89,0,0,0,411,506.67L438.54,738.5a10.89,10.89,0,0,0,10.8,9.61,11.17,11.17,0,0,0,1.29-.08,10.88,10.88,0,0,0,9.53-12.1Zm-90.43-1.24a10.89,10.89,0,1,0-21.19,5L376.1,739.74a10.89,10.89,0,0,0,21.19-5Zm-90.55-1.14a10.89,10.89,0,1,0-20.51,7.32l82.66,231.83A10.9,10.9,0,0,0,324,748.11a10.6,10.6,0,0,0,3.65-.64,10.88,10.88,0,0,0,6.6-13.91Z"/> </g> </svg>